<svg width="1600" height="1200" viewBox="0 0 1600 1200" fill="none" xmlns="http://www.w3.org/2000/svg">
<rect width="1600" height="1200" fill="white"/>
<rect width="1600" height="1200" fill="#FAF7F1"/>
<mask id="mask0_0:8787" style="mask-type:alpha" maskUnits="userSpaceOnUse" x="0" y="0" width="1600" height="1200">
<rect width="1600" height="1200" fill="#FAF7F1"/>
</mask>
<g mask="url(#mask0_0:8787)">
<path d="M1537.88 633.583V648.583C1546.16 648.583 1552.88 641.867 1552.88 633.583H1537.88ZM1507.88 633.583H1492.88C1492.88 641.867 1499.59 648.583 1507.88 648.583V633.583ZM1671.65 548.558L1684.74 555.878C1686.68 552.405 1687.16 548.304 1686.08 544.476C1685 540.648 1682.44 537.406 1678.97 535.465L1671.65 548.558ZM1657.01 574.744L1649.69 587.837C1653.16 589.778 1657.26 590.26 1661.09 589.178C1664.92 588.095 1668.16 585.536 1670.1 582.063L1657.01 574.744ZM1702.91 575.007L1714.67 565.689C1712.2 562.572 1708.59 560.563 1704.64 560.106C1700.68 559.649 1696.71 560.781 1693.59 563.252L1702.91 575.007ZM1723.61 691.033V706.033C1731.9 706.033 1738.61 699.318 1738.61 691.033H1723.61ZM1693.61 691.033H1678.61C1678.61 699.318 1685.33 706.033 1693.61 706.033V691.033ZM1679.4 593.643L1670.08 581.888C1663.59 587.034 1662.5 596.469 1667.65 602.961L1679.4 593.643ZM1552.88 633.583C1552.88 606.105 1578.34 579.197 1615.75 579.197V549.197C1564.37 549.197 1522.88 587.055 1522.88 633.583H1552.88ZM1507.88 648.583H1537.88V618.583H1507.88V648.583ZM1615.75 519.197C1550.71 519.197 1492.88 567.712 1492.88 633.583H1522.88C1522.88 587.032 1564.39 549.197 1615.75 549.197V519.197ZM1678.97 535.465C1660.37 525.067 1638.69 519.197 1615.75 519.197V549.197C1633.55 549.197 1650.2 553.751 1664.33 561.651L1678.97 535.465ZM1670.1 582.063L1684.74 555.878L1658.56 541.239L1643.92 567.424L1670.1 582.063ZM1615.75 579.197C1628.42 579.197 1640.02 582.434 1649.69 587.837L1664.33 561.651C1650.2 553.751 1633.55 549.197 1615.75 549.197V579.197ZM1738.61 633.583C1738.61 607.956 1729.55 584.466 1714.67 565.689L1691.16 584.325C1702.14 598.185 1708.61 615.199 1708.61 633.583H1738.61ZM1738.61 691.033V633.583H1708.61V691.033H1738.61ZM1693.61 706.033H1723.61V676.033H1693.61V706.033ZM1678.61 633.583V691.033H1708.61V633.583H1678.61ZM1667.65 602.961C1674.73 611.898 1678.61 622.434 1678.61 633.583H1708.61C1708.61 615.2 1702.14 598.186 1691.16 584.325L1667.65 602.961ZM1693.59 563.252L1670.08 581.888L1688.72 605.398L1712.23 586.762L1693.59 563.252Z" fill="#DCDCDB"/>
<path d="M1168.51 -135.395L1181.6 -128.077C1183.54 -131.549 1184.02 -135.651 1182.94 -139.479C1181.86 -143.307 1179.3 -146.548 1175.82 -148.489L1168.51 -135.395ZM1227.34 -16.2627H1242.34C1242.34 -24.5469 1235.63 -31.2627 1227.34 -31.2627V-16.2627ZM1227.34 13.7373V28.7373C1235.63 28.7373 1242.34 22.0216 1242.34 13.7373H1227.34ZM1142.32 -150.033L1149.64 -163.126C1146.17 -165.067 1142.06 -165.549 1138.24 -164.466C1134.41 -163.384 1131.17 -160.824 1129.23 -157.352L1142.32 -150.033ZM1168.77 -181.301L1159.45 -193.056C1152.96 -187.911 1151.87 -178.476 1157.01 -171.984L1168.77 -181.301ZM1284.8 -202H1299.8C1299.8 -210.284 1293.08 -217 1284.8 -217V-202ZM1284.8 -172V-157C1293.08 -157 1299.8 -163.716 1299.8 -172H1284.8ZM1187.4 -157.79L1175.65 -148.473C1178.12 -145.355 1181.73 -143.347 1185.68 -142.889C1189.63 -142.432 1193.6 -143.563 1196.72 -146.035L1187.4 -157.79ZM1172.96 -94.1315C1172.96 -106.807 1176.19 -118.408 1181.6 -128.077L1155.41 -142.714C1147.51 -128.58 1142.96 -111.941 1142.96 -94.1315H1172.96ZM1227.34 -31.2627C1199.87 -31.2627 1172.96 -56.7269 1172.96 -94.1315H1142.96C1142.96 -42.7553 1180.82 -1.26267 1227.34 -1.26267V-31.2627ZM1242.34 13.7373V-16.2627H1212.34V13.7373H1242.34ZM1112.96 -94.1315C1112.96 -29.1036 1161.47 28.7373 1227.34 28.7373V-1.26266C1180.79 -1.26266 1142.96 -42.7801 1142.96 -94.1315H1112.96ZM1129.23 -157.352C1118.83 -138.753 1112.96 -117.075 1112.96 -94.1315H1142.96C1142.96 -111.941 1147.51 -128.58 1155.41 -142.714L1129.23 -157.352ZM1175.82 -148.489L1149.64 -163.126L1135 -136.94L1161.19 -122.302L1175.82 -148.489ZM1227.34 -217C1201.72 -217 1178.23 -207.938 1159.45 -193.056L1178.09 -169.545C1191.95 -180.531 1208.96 -187 1227.34 -187V-217ZM1284.8 -217H1227.34V-187H1284.8V-217ZM1299.8 -172V-202H1269.8V-172H1299.8ZM1227.34 -157H1284.8V-187H1227.34V-157ZM1196.72 -146.035C1205.66 -153.118 1216.2 -157 1227.34 -157V-187C1208.96 -187 1191.95 -180.531 1178.09 -169.545L1196.72 -146.035ZM1157.01 -171.984L1175.65 -148.473L1199.16 -167.107L1180.52 -190.618L1157.01 -171.984Z" fill="#F4B943"/>
<path d="M1460.82 758.574H1458.18C1439.36 758.574 1424.1 773.885 1424.1 792.767C1424.1 811.649 1439.36 826.959 1458.18 826.959H1536.92C1555.74 826.959 1571 811.649 1571 792.767C1571 773.885 1555.74 758.574 1536.92 758.574H1534.27" stroke="#05203D" stroke-width="30" stroke-linejoin="round"/>
<path d="M1500.56 5.49211C1518.94 5.49211 1533.85 -9.24953 1533.85 -27.4341C1533.85 -45.6187 1518.94 -60.3604 1500.56 -60.3604H1462.93" stroke="#DCDCDB" stroke-width="30" stroke-linejoin="round"/>
<path d="M1636.01 830.336V701.941C1636.01 676.799 1615.6 656.418 1590.42 656.418C1565.24 656.418 1544.83 676.799 1544.83 701.941V721.812" stroke="#F4B943" stroke-width="30" stroke-linejoin="round"/>
<path d="M844.934 -170.959V-42.7754C844.934 -4.4612 876.118 26.5984 914.585 26.5984C953.053 26.5984 984.237 -4.4612 984.237 -42.7754V-73.0607" stroke="#F4B943" stroke-width="30" stroke-linejoin="round"/>
<path d="M1341.36 -134.655H1493.31C1551.14 -134.655 1598.02 -87.5955 1598.02 -29.5446C1598.02 28.5062 1551.14 75.566 1493.31 75.566H1447.6" stroke="#F4B943" stroke-width="30" stroke-linejoin="round"/>
<path d="M699.721 122V168.429C699.721 202.004 726.936 229.221 760.508 229.221" stroke="#F4B943" stroke-width="30" stroke-linejoin="round"/>
<path d="M1444.78 189.119H1533.69C1584.89 189.119 1627.77 229.118 1638.96 282.832" stroke="#05203D" stroke-width="30"/>
<path d="M795.122 127.91L795.122 -41.6202C795.122 -74.8173 768.285 -101.729 735.18 -101.729" stroke="#DCDCDB" stroke-width="30" stroke-linejoin="round"/>
<path d="M1362.47 26.5982C1377.39 26.5982 1389.48 14.5026 1389.48 -0.418177C1389.48 -15.3389 1377.39 -27.4346 1362.47 -27.4346C1347.55 -27.4346 1335.45 -15.3389 1335.45 -0.418177C1335.45 14.5026 1347.55 26.5982 1362.47 26.5982Z" stroke="#F4B943" stroke-width="30" stroke-linejoin="round"/>
<path d="M1362.47 75.5654C1405.36 75.5654 1440.14 41.3574 1440.14 -0.840355C1440.14 -43.0382 1405.36 -77.2461 1362.47 -77.2461C1319.57 -77.2461 1284.79 -43.0382 1284.79 -0.840355" stroke="#DCDCDB" stroke-width="30" stroke-linejoin="round"/>
<path d="M1106.23 503.402C1085.95 503.402 1069.51 519.697 1069.51 539.804C1069.51 559.911 1085.95 576.213 1106.23 576.213C1126.51 576.213 1142.96 559.911 1142.96 539.804V428.467" stroke="#F4B943" stroke-width="30" stroke-linejoin="round"/>
<path d="M668.483 38.418C668.483 80.3827 634.464 114.402 592.499 114.402C550.534 114.402 516.516 80.3827 516.516 38.418" stroke="#DCDCDB" stroke-width="30" stroke-linejoin="round"/>
<path d="M734.337 76.4103V-16.4568C734.337 -34.6426 719.595 -49.3848 701.411 -49.3848C683.226 -49.3848 668.484 -34.6426 668.484 -16.4568V-2.08251" stroke="#05203D" stroke-width="30" stroke-linejoin="round"/>
<path d="M539.311 197.983C551.9 197.983 562.106 187.966 562.106 175.61C562.106 163.254 551.9 153.237 539.311 153.237C526.721 153.237 516.516 163.254 516.516 175.61C516.516 187.966 526.721 197.983 539.311 197.983Z" stroke="#05203D" stroke-width="30" stroke-linejoin="round"/>
<path d="M558.73 24.2556V-68.9932C558.73 -87.0729 573.472 -101.729 591.657 -101.729C609.841 -101.729 624.583 -87.0729 624.583 -68.9932V24.2556C624.583 42.3352 609.841 56.9918 591.657 56.9918C573.472 56.9918 558.73 42.3352 558.73 24.2556Z" stroke="#F4B943" stroke-width="30" stroke-linejoin="round"/>
<path d="M1312.66 76.4102H1238.3C1191.24 76.4102 1153.09 114.587 1153.09 161.681" stroke="#DCDCDB" stroke-width="30" stroke-linejoin="round"/>
<path d="M1386.53 240.196C1368.11 240.196 1353.18 254.938 1353.18 273.123C1353.18 291.307 1368.11 306.049 1386.53 306.049C1404.95 306.049 1419.88 291.307 1419.88 273.123V240.196" stroke="#DCDCDB" stroke-width="30" stroke-linejoin="round"/>
<path d="M1590.42 396.177C1590.42 443.386 1629.16 481.655 1676.95 481.655C1724.75 481.655 1763.49 443.386 1763.49 396.177V304.36" stroke="#F4B943" stroke-width="30" stroke-linejoin="round"/>
<path d="M1545.36 436.066H1541.05C1516.56 436.066 1496.71 416.221 1496.71 391.742C1496.71 367.262 1516.56 347.418 1541.05 347.418H1676.09C1700.58 347.418 1720.43 367.262 1720.43 391.742C1720.43 416.221 1700.58 436.066 1676.09 436.066H1674.76" stroke="#05203D" stroke-width="30" stroke-linejoin="round"/>
<path d="M1462.93 240.196H1517.41C1554 240.196 1583.66 269.68 1583.66 306.049" stroke="#F4B943" stroke-width="30" stroke-linejoin="round"/>
<path d="M1270.87 256.237C1290.22 256.237 1305.9 240.74 1305.9 221.623C1305.9 202.505 1290.22 187.008 1270.87 187.008C1251.51 187.008 1235.83 202.505 1235.83 221.623C1235.83 240.74 1251.51 256.237 1270.87 256.237Z" stroke="#DCDCDB" stroke-width="30" stroke-linejoin="round"/>
<path d="M1339.67 221.623C1339.67 178.728 1305.46 143.951 1263.27 143.951C1221.07 143.951 1186.86 178.728 1186.86 221.623C1186.86 264.518 1221.07 299.295 1263.27 299.295" stroke="#05203D" stroke-width="30" stroke-linejoin="round"/>
<path d="M926.055 193.341C926.055 212.691 910.544 228.377 891.405 228.377C872.265 228.377 856.754 212.691 856.754 193.341C856.754 173.99 872.265 158.304 891.405 158.304H1002.81" stroke="#DCDCDB" stroke-width="30" stroke-linejoin="round"/>
<path d="M1047.56 268.48V219.219C1047.56 205.16 1058.9 193.763 1072.88 193.763C1086.87 193.763 1098.21 205.16 1098.21 219.219V317.74C1098.21 331.8 1086.87 343.197 1072.88 343.197C1058.9 343.197 1047.56 331.8 1047.56 317.74V305.839" stroke="#F4B943" stroke-width="30" stroke-linejoin="round"/>
<path d="M1003.66 193.763V321.946C1003.66 360.26 1034.84 391.32 1073.31 391.32C1111.78 391.32 1142.96 360.26 1142.96 321.946V291.661" stroke="#F4B943" stroke-width="30" stroke-linejoin="round"/>
<path d="M1014.63 79.7871H978.071C951.635 79.7871 930.205 101.332 930.205 127.91" stroke="#05203D" stroke-width="30" stroke-linejoin="round"/>
<path d="M1047.14 43.4834C1047.14 48.6083 1047.14 126.688 1047.14 158.303" stroke="#DCDCDB" stroke-width="30" stroke-linejoin="round"/>
<path d="M1199.53 564.762C1199.53 546.376 1214.27 531.467 1232.45 531.467C1250.64 531.467 1265.38 546.376 1265.38 564.762V602.385" stroke="#DCDCDB" stroke-width="30" stroke-linejoin="round"/>
<path d="M1335.03 546.664C1354.38 546.664 1370.07 531.167 1370.07 512.049C1370.07 492.932 1354.38 477.435 1335.03 477.435C1315.68 477.435 1299.99 492.932 1299.99 512.049C1299.99 531.167 1315.68 546.664 1335.03 546.664Z" stroke="#DCDCDB" stroke-width="30" stroke-linejoin="round"/>
<path d="M1227.38 431.844H1342.34C1386.1 431.844 1421.57 467.377 1421.57 511.204C1421.57 555.031 1386.1 590.565 1342.34 590.565H1307.76" stroke="#05203D" stroke-width="30" stroke-linejoin="round"/>
<path d="M1430.01 723.115C1442.6 723.115 1452.8 713.098 1452.8 700.742C1452.8 688.386 1442.6 678.369 1430.01 678.369C1417.42 678.369 1407.21 688.386 1407.21 700.742C1407.21 713.098 1417.42 723.115 1430.01 723.115Z" stroke="#05203D" stroke-width="30" stroke-linejoin="round"/>
<path d="M794.677 215.713C794.693 224.156 794.709 232.598 794.726 241.041" stroke="#F4B943" stroke-width="30" stroke-linejoin="round"/>
<path d="M1324.03 350.795C1324.04 359.238 1324.06 367.68 1324.08 376.123" stroke="#05203D" stroke-width="30" stroke-linejoin="round"/>
<path d="M1443.91 350.795C1443.93 359.238 1443.95 367.68 1443.96 376.123" stroke="#05203D" stroke-width="30" stroke-linejoin="round"/>
</g>
</svg>
